<?xml version="1.0" standalone="no"?>
<!DOCTYPE svg PUBLIC "-//W3C//DTD SVG 20010904//EN"
 "http://www.w3.org/TR/2001/REC-SVG-20010904/DTD/svg10.dtd">
<svg version="1.0" xmlns="http://www.w3.org/2000/svg"
 width="512.000000pt" height="512.000000pt" viewBox="0 0 512.000000 512.000000"
 preserveAspectRatio="xMidYMid meet">

<g transform="translate(0.000000,512.000000) scale(0.100000,-0.100000)"
fill="#000000" stroke="none">
<path d="M2192 4982 c-15 -2 -58 -51 -134 -151 l-113 -147 -166 -58 c-97 -33
-175 -66 -186 -78 -16 -18 -18 -42 -21 -201 l-3 -182 -105 -150 c-65 -93 -104
-159 -104 -175 0 -16 39 -82 104 -175 l105 -150 3 -182 c3 -209 5 -211 95
-240 39 -12 52 -21 48 -31 -3 -8 -102 -192 -220 -408 -122 -223 -215 -405
-215 -419 0 -32 41 -75 72 -75 13 0 95 29 183 64 88 35 162 62 164 60 2 -2 18
-76 36 -166 27 -132 37 -166 55 -180 25 -20 62 -23 91 -8 12 7 97 166 213 398
l194 387 128 38 c71 21 136 38 144 38 8 0 73 -17 144 -38 l128 -38 194 -387
c116 -232 201 -391 213 -398 29 -15 66 -12 91 8 18 14 28 48 55 180 18 90 34
164 36 166 2 2 76 -25 164 -60 88 -35 170 -64 183 -64 31 0 72 43 72 75 0 14
-93 196 -215 419 -118 216 -217 400 -220 408 -4 10 9 19 48 31 90 29 92 31 95
240 l3 182 105 150 c65 93 104 159 104 175 0 16 -39 82 -104 175 l-105 150 -3
184 c-3 182 -3 183 -28 204 -14 12 -98 46 -185 76 l-160 55 -112 147 c-80 105
-119 148 -137 151 -14 3 -94 -16 -183 -43 -87 -27 -169 -49 -182 -49 -13 0
-73 15 -135 34 -167 52 -209 62 -234 58z m215 -219 l154 -47 156 48 c128 39
158 45 168 34 6 -7 49 -62 95 -123 46 -60 87 -114 91 -119 4 -4 76 -32 161
-61 l153 -53 5 -164 5 -165 47 -69 c25 -38 67 -99 93 -136 l47 -68 -47 -67
c-26 -38 -68 -99 -93 -137 l-47 -69 -5 -165 -5 -164 -153 -53 c-85 -29 -157
-57 -161 -61 -4 -5 -45 -58 -91 -119 -46 -60 -89 -116 -95 -123 -10 -11 -40
-5 -168 34 l-156 48 -157 -48 c-130 -40 -158 -46 -169 -34 -6 7 -49 63 -95
123 -46 61 -87 114 -91 119 -4 4 -76 32 -161 61 l-153 53 -5 164 -5 165 -47
69 c-25 38 -67 99 -93 137 l-47 67 47 68 c26 37 68 98 93 136 l47 69 5 165 5
164 153 53 c85 29 157 57 161 61 5 5 50 64 101 132 51 67 96 122 98 122 3 0
75 -21 159 -47z m-484 -1759 c13 -3 62 -58 114 -126 l91 -121 -126 -253 c-69
-139 -128 -252 -129 -250 -2 1 -11 45 -22 96 -20 100 -40 130 -85 130 -13 0
-67 -18 -121 -40 -54 -22 -100 -39 -101 -37 -2 1 72 141 164 310 114 209 171
305 180 302 8 -3 24 -8 35 -11z m1489 -291 c92 -169 166 -309 164 -310 -1 -2
-47 15 -101 37 -54 22 -108 40 -121 40 -45 0 -65 -30 -85 -130 -11 -51 -20
-95 -22 -96 -1 -2 -59 111 -129 250 l-126 252 91 121 c84 111 110 134 157 142
3 0 80 -138 172 -306z"/>
<path d="M2434 4550 c-143 -26 -266 -92 -380 -205 -90 -89 -142 -173 -182
-293 -22 -67 -26 -94 -25 -212 0 -119 3 -144 26 -215 38 -115 91 -199 182
-290 91 -91 175 -144 290 -182 71 -23 96 -26 215 -26 119 0 144 3 215 26 115
38 199 91 290 182 91 91 144 175 182 290 23 71 26 96 26 215 0 119 -3 144 -26
215 -38 115 -91 199 -182 290 -139 140 -284 203 -475 210 -58 2 -128 0 -156
-5z m232 -161 c162 -29 321 -151 394 -303 151 -314 -3 -668 -340 -782 -76 -26
-244 -26 -320 0 -271 91 -432 344 -392 617 26 180 141 337 305 418 118 58 225
73 353 50z"/>
<path d="M2514 4226 c-10 -8 -39 -57 -63 -109 l-43 -95 -101 -15 c-87 -14
-105 -20 -124 -42 -38 -43 -30 -67 52 -156 41 -45 75 -89 75 -98 0 -9 -7 -57
-15 -108 -17 -103 -11 -133 32 -152 38 -17 53 -14 146 38 l87 50 88 -50 c92
-52 107 -55 145 -38 43 19 49 49 32 152 -8 51 -15 99 -15 108 0 9 34 53 75 98
82 89 90 112 52 156 -19 22 -37 29 -124 42 l-102 16 -43 94 c-44 99 -65 123
-108 123 -14 0 -35 -6 -46 -14z m66 -297 c16 -37 42 -54 93 -63 l38 -7 -37
-41 c-35 -39 -36 -43 -30 -93 l6 -53 -37 19 c-47 24 -59 24 -106 -1 l-37 -20
6 54 c6 51 5 55 -30 94 l-37 41 38 7 c51 9 77 26 93 63 7 17 16 31 20 31 4 0
13 -14 20 -31z"/>
<path d="M3917 3694 c-27 -57 -30 -68 -17 -76 8 -5 57 -33 109 -62 351 -199
647 -528 732 -813 6 -24 15 -43 18 -43 11 0 144 39 148 44 2 2 -14 51 -36 108
-114 291 -341 556 -656 765 -100 67 -235 143 -253 143 -7 0 -27 -30 -45 -66z"/>
<path d="M1012 3683 c-370 -219 -637 -510 -763 -831 -22 -57 -39 -105 -37
-107 4 -4 138 -45 147 -45 5 0 14 19 20 43 64 213 274 489 509 666 75 56 272
182 304 194 9 3 3 24 -22 72 -19 37 -38 69 -41 70 -3 2 -56 -26 -117 -62z"/>
<path d="M166 2525 c-3 -27 -6 -65 -6 -86 l0 -39 80 0 80 0 0 38 c0 20 3 53 6
73 7 40 12 38 -107 54 l-46 7 -7 -47z"/>
<path d="M4846 2557 l-58 -10 6 -36 c3 -20 6 -53 6 -73 l0 -38 80 0 80 0 0 39
c0 21 -3 59 -6 85 -8 52 -5 51 -108 33z"/>
<path d="M233 2238 l-62 -10 6 -31 c84 -445 384 -823 878 -1106 49 -28 95 -51
102 -51 12 0 73 108 73 129 0 5 -35 28 -77 52 -431 236 -711 566 -806 947 -15
61 -24 82 -36 81 -9 -1 -44 -6 -78 -11z"/>
<path d="M4773 2168 c-47 -189 -130 -351 -264 -512 -128 -154 -318 -311 -499
-411 -140 -77 -130 -63 -93 -139 18 -36 39 -66 46 -66 16 0 170 88 263 150
306 207 534 475 645 758 33 86 84 271 76 279 -3 2 -128 23 -143 23 -6 0 -20
-37 -31 -82z"/>
<path d="M2480 2160 l0 -80 -56 0 c-87 0 -133 -18 -189 -75 -57 -56 -75 -102
-75 -189 l0 -56 -55 0 c-46 0 -60 -4 -80 -25 -25 -24 -25 -27 -25 -200 l0
-175 -295 0 -296 0 -24 -25 -25 -24 0 -511 0 -511 25 -24 24 -25 296 0 c259 0
295 -2 295 -15 0 -9 11 -27 25 -40 l24 -25 511 0 511 0 24 25 c14 13 25 31 25
40 0 13 36 15 295 15 l296 0 24 25 25 24 0 511 0 511 -25 24 -24 25 -296 0
-295 0 0 175 c0 173 0 176 -25 200 -20 21 -34 25 -80 25 l-55 0 0 56 c0 81
-18 129 -67 184 -51 57 -108 80 -195 80 l-58 0 0 80 0 80 -80 0 -80 0 0 -80z
m295 -265 c21 -20 25 -34 25 -80 l0 -55 -240 0 -240 0 0 55 c0 46 4 60 25 80
24 25 26 25 215 25 189 0 191 0 215 -25z m185 -935 l0 -640 -80 0 -80 0 0 135
c0 131 -1 137 -25 160 -24 25 -26 25 -215 25 -189 0 -191 0 -215 -25 -24 -23
-25 -29 -25 -160 l0 -135 -80 0 -80 0 0 640 0 640 400 0 400 0 0 -640z m-960
-160 l0 -400 -240 0 -240 0 0 400 0 400 240 0 240 0 0 -400z m1600 0 l0 -400
-240 0 -240 0 0 400 0 400 240 0 240 0 0 -400z m-960 -400 l0 -80 -80 0 -80 0
0 80 0 80 80 0 80 0 0 -80z"/>
<path d="M2320 1360 l0 -80 240 0 240 0 0 80 0 80 -240 0 -240 0 0 -80z"/>
<path d="M2320 960 l0 -80 240 0 240 0 0 80 0 80 -240 0 -240 0 0 -80z"/>
<path d="M1680 960 l0 -80 80 0 80 0 0 80 0 80 -80 0 -80 0 0 -80z"/>
<path d="M1680 640 l0 -80 80 0 80 0 0 80 0 80 -80 0 -80 0 0 -80z"/>
<path d="M3280 960 l0 -80 80 0 80 0 0 80 0 80 -80 0 -80 0 0 -80z"/>
<path d="M3280 640 l0 -80 80 0 80 0 0 80 0 80 -80 0 -80 0 0 -80z"/>
</g>
</svg>
